<svg width="200" height="200" viewBox="0 0 200 200" fill="none" xmlns="http://www.w3.org/2000/svg">
<g id="Frame 1" clip-path="url(#clip0_1_2)">
<g id="gradient_FILL0_wght400_GRAD0_opsz48 1">
<path id="Vector" d="M91.0417 108.75V90.8333H108.75V108.75H91.0417ZM73.125 126.667V108.75H91.0417V126.667H73.125ZM108.75 126.667V108.75H126.667V126.667H108.75ZM126.667 108.75V90.8333H144.583V108.75H126.667ZM55.4167 108.75V90.8333H73.125V108.75H55.4167ZM37.5 175C34.0625 175 31.1198 173.776 28.6719 171.328C26.224 168.88 25 165.937 25 162.5V37.5C25 34.0625 26.224 31.1198 28.6719 28.6719C31.1198 26.224 34.0625 25 37.5 25H162.5C165.937 25 168.88 26.224 171.328 28.6719C173.776 31.1198 175 34.0625 175 37.5V162.5C175 165.937 173.776 168.88 171.328 171.328C168.88 173.776 165.937 175 162.5 175H37.5ZM55.4167 162.5H73.125V144.583H55.4167V162.5ZM91.0417 162.5H108.75V144.583H91.0417V162.5ZM37.5 144.583H55.3333V126.667H73.1667V144.583H91V126.667H108.833V144.583H126.667V126.667H144.583V144.583H162.5V126.667H144.583V108.75H162.5V37.5H37.5V108.833H55.3571V126.667H37.5V144.583ZM126.667 144.583V162.5H144.583V144.583H126.667Z" fill="url(#paint0_linear_1_2)"/>
</g>
</g>
<defs>
<linearGradient id="paint0_linear_1_2" x1="165.5" y1="25" x2="25" y2="175" gradientUnits="userSpaceOnUse">
<stop stop-color="#FF0066"/>
<stop offset="0.481919" stop-color="#FFC857"/>
<stop offset="0.504057" stop-color="#B1DDF1"/>
<stop offset="1" stop-color="#333745"/>
</linearGradient>
<clipPath id="clip0_1_2">
<rect width="200" height="200" fill="white"/>
</clipPath>
</defs>
</svg>
